# File created by Blade
# Date/Time:  Wed Apr 08 17:12:22 2015
#---------------------------------------------------------
:version 1.10
:name HOM
:units
  mass 1.0
  length 1.000000
  angle deg
:documentation
     Acclaim Skeleton File
:root
   axis xyz
   order TX TY TZ RX RY RZ
   position 0.000000 0.000000 0.000000
   orientation 0 0 0
:bonedata
   begin
      id 1
      name Spine_dum
      direction 0.000000 1.000000 0.000000
      length 5.893853
      axis 0.0 0.0 0.0 xyz
   end
   begin
      id 2
      name LeftUpLeg_dum
      direction 1.000000 0.000000 0.000000
      length 3.697939
      axis 0.0 0.0 0.0 xyz
   end
   begin
      id 3
      name RightUpLeg_dum
      direction -1.000000 0.000000 0.000000
      length 3.697939
      axis 0.0 0.0 0.0 xyz
   end
   begin
      id 4
      name Spine
      direction 0.000000 1.000000 0.000000
      length 0.000000
      axis 0.0 0.0 0.0 xyz
      dof rx ry rz
   end
   begin
      id 5
      name Spine_dum1
      direction 0.000000 1.000000 0.000000
      length 16.447146
      axis 0.0 0.0 0.0 xyz
   end
   begin
      id 6
      name Spine_dum2
      direction 0.000000 1.000000 0.000000
      length 10.900383
      axis 0.0 0.0 0.0 xyz
   end
   begin
      id 7
      name Spine_dum3
      direction 0.000000 1.000000 0.000000
      length 10.900383
      axis 0.0 0.0 0.0 xyz
   end
   begin
      id 8
      name Head
      direction 0.000000 1.000000 0.000000
      length 4.527550
      axis 0.0 0.0 0.0 xyz
      dof rx ry rz
   end
   begin
      id 9
      name LeftShoulder
      direction 1.000000 0.000000 0.000000
      length 8.219464
      axis 0.0 0.0 -90.0 xyz
      dof rx ry rz
   end
   begin
      id 10
      name LeftArm
      direction 1.000000 0.000000 0.000000
      length 11.094937
      axis 0.0 0.0 -90.0 xyz
      dof rx ry rz
   end
   begin
      id 11
      name LeftForeArm
      direction 1.000000 0.000000 0.000000
      length 9.103875
      axis 0.0 0.0 -90.0 xyz
      dof ry rz rx
   end
   begin
      id 12
      name LeftHand
      direction 0.000000 0.000000 0.000000
      length 0.000000
      axis 0.0 0.0 -90.0 xyz
      dof rx ry rz
   end
   begin
      id 13
      name LeftHand_dum1
      direction 0.000000 0.000000 0.000000
      length 0.000000
      axis 0.0 0.0 -90.0 xyz
   end
   begin
      id 14
      name LeftHand_dum2
      direction 1.000000 0.000000 0.000000
      length 3.937000
      axis 0.0 0.0 -90.0 xyz
   end
   begin
      id 15
      name LeftHandThumb1
      direction 0.000000 0.000000 1.000000
      length 3.937000
      axis 0.0 0.0 -90.0 xyz
      dof rx rz ry
   end
   begin
      id 16
      name RightShoulder
      direction -1.000000 0.000000 0.000000
      length 8.219464
      axis 0.0 0.0 90.0 xyz
      dof rx ry rz
   end
   begin
      id 17
      name RightArm
      direction -1.000000 0.000000 0.000000
      length 11.094937
      axis 0.0 0.0 90.0 xyz
      dof rx ry rz
   end
   begin
      id 18
      name RightForeArm
      direction -1.000000 0.000000 0.000000
      length 9.103875
      axis 0.0 0.0 90.0 xyz
      dof ry rz rx
   end
   begin
      id 19
      name RightHand
      direction 0.000000 0.000000 0.000000
      length 0.000000
      axis 0.0 0.0 90.0 xyz
      dof rx ry rz
   end
   begin
      id 20
      name RightHand_dum1
      direction 0.000000 0.000000 0.000000
      length 0.000000
      axis 0.0 0.0 90.0 xyz
   end
   begin
      id 21
      name RightHand_dum2
      direction -1.000000 0.000000 0.000000
      length 3.937000
      axis 0.0 0.0 90.0 xyz
   end
   begin
      id 22
      name RightHandThumb1
      direction 0.000000 0.000000 1.000000
      length 3.937000
      axis 0.0 0.0 90.0 xyz
      dof rx rz ry
   end
   begin
      id 23
      name LeftUpLeg
      direction 0.000000 -1.000000 0.000000
      length 16.181467
      axis 0.0 0.0 0.0 xyz
      dof rx ry rz
   end
   begin
      id 24
      name LeftLeg
      direction 0.000000 -1.000000 0.000000
      length 16.501392
      axis 0.0 0.0 0.0 xyz
      dof rx ry rz
   end
   begin
      id 25
      name LeftFoot
      direction 0.000000 -0.258819 0.965926
      length 6.408245
      axis 15.0 0.0 0.0 xyz
      dof rx ry rz
   end
   begin
      id 26
      name LeftToeBase
      direction 0.000000 0.000000 1.000000
      length 2.952750
      axis 0.0 0.0 0.0 xyz
      dof rx ry rz
   end
   begin
      id 27
      name RightUpLeg
      direction 0.000000 -1.000000 0.000000
      length 16.181467
      axis 0.0 0.0 0.0 xyz
      dof rx ry rz
   end
   begin
      id 28
      name RightLeg
      direction 0.000000 -1.000000 0.000000
      length 16.501392
      axis 0.0 0.0 0.0 xyz
      dof rx ry rz
   end
   begin
      id 29
      name RightFoot
      direction 0.000000 -0.258819 0.965926
      length 6.408245
      axis 15.0 0.0 0.0 xyz
      dof rx ry rz
   end
   begin
      id 30
      name RightToeBase
      direction 0.000000 0.000000 1.000000
      length 2.952750
      axis 0.0 0.0 0.0 xyz
      dof rx ry rz
   end
:hierarchy
   begin
      root Spine_dum LeftUpLeg_dum RightUpLeg_dum
      Spine_dum Spine
      LeftUpLeg_dum LeftUpLeg
      RightUpLeg_dum RightUpLeg
      Spine Spine_dum1 Spine_dum2 Spine_dum3
      Spine_dum1 Head
      Spine_dum2 LeftShoulder
      Spine_dum3 RightShoulder
      LeftShoulder LeftArm
      LeftArm LeftForeArm
      LeftForeArm LeftHand
      LeftHand LeftHand_dum1 LeftHand_dum2
      LeftHand_dum1 LeftHandThumb1
      RightShoulder RightArm
      RightArm RightForeArm
      RightForeArm RightHand
      RightHand RightHand_dum1 RightHand_dum2
      RightHand_dum1 RightHandThumb1
      LeftUpLeg LeftLeg
      LeftLeg LeftFoot
      LeftFoot LeftToeBase
      RightUpLeg RightLeg
      RightLeg RightFoot
      RightFoot RightToeBase
   end

# File created by Blade
# Date/Time:  Wed Apr 08 17:12:12 2015
# Frame Rate: 120.000 fps
#------------------------------------------------------
:FULLY-SPECIFIED
:DEGREES
603
root 1.878562 36.731303 6.324355 -23.526756 -29.217875 -12.910685
Spine 37.184493 0.412150 5.839692
Head 2.549617 13.068144 11.672374
LeftShoulder -5.972800 16.597065 15.278033
LeftArm 19.203491 23.115969 -75.085478
LeftForeArm 19.681973 0.000000 20.138332
LeftHand -12.705118 -0.000000 -11.352051
LeftHandThumb1 -26.253704 0.000000 33.147579
RightShoulder -26.616215 -48.757555 13.708187
RightArm 58.941195 -20.225321 50.422869
RightForeArm 9.181502 -0.000000 20.758236
RightHand -2.314510 -0.000000 12.073408
RightHandThumb1 -24.326973 -0.000000 -32.862282
LeftUpLeg 30.982954 11.343153 15.757399
LeftLeg 13.500539 -0.000000 -0.000000
LeftFoot -15.885087 1.649768 -9.728911
LeftToeBase 6.919151 -0.000000 -0.000000
RightUpLeg -70.759875 -3.897421 19.058945
RightLeg 134.726632 -0.000000 -0.000000
RightFoot 15.196568 -4.787833 15.117337
RightToeBase -10.052283 -0.000000 0.000000
604
root 1.882802 36.734669 6.301663 -23.390985 -29.553796 -13.037809
Spine 37.184682 0.355796 5.824578
Head 2.529858 13.062202 11.686601
LeftShoulder -5.976722 16.638083 15.271640
LeftArm 19.255309 22.941531 -75.094782
LeftForeArm 19.698474 -0.000000 20.343270
LeftHand -12.684852 -0.000000 -11.280865
LeftHandThumb1 -26.253704 0.000000 33.147579
RightShoulder -26.534956 -48.769397 13.658676
RightArm 58.965327 -20.154246 50.492840
RightForeArm 9.109272 -0.000000 20.711352
RightHand -2.392299 -0.000000 11.886897
RightHandThumb1 -24.326973 -0.000000 -32.862282
LeftUpLeg 31.005506 11.628482 16.015446
LeftLeg 13.454542 -0.000000 -0.000000
LeftFoot -15.880873 1.683908 -9.748345
LeftToeBase 6.785849 -0.000000 -0.000000
RightUpLeg -70.849465 -4.060961 19.004968
RightLeg 134.705443 -0.000000 -0.000000
RightFoot 15.259621 -4.730722 15.050205
RightToeBase -10.340713 -0.000000 0.000000
605
root 1.890051 36.736210 6.285114 -23.282880 -29.913276 -13.136247
Spine 37.200064 0.353311 5.836459
Head 2.493643 13.022781 11.669882
LeftShoulder -5.956848 16.634839 15.276592
LeftArm 19.296804 22.868693 -75.097225
LeftForeArm 19.571795 0.000000 20.543283
LeftHand -12.728800 -0.000000 -11.205811
LeftHandThumb1 -26.253704 0.000000 33.147579
RightShoulder -26.542678 -48.750256 13.672808
RightArm 59.000212 -20.115214 50.436057
RightForeArm 9.146717 -0.000000 20.706294
RightHand -2.338891 -0.000000 11.903846
RightHandThumb1 -24.326973 -0.000000 -32.862282
LeftUpLeg 31.019636 11.781162 16.134370
LeftLeg 13.451957 -0.000000 -0.000000
LeftFoot -15.933374 1.853169 -9.872561
LeftToeBase 6.729128 -0.000000 -0.000000
RightUpLeg -70.930070 -4.195799 18.914198
RightLeg 134.706498 -0.000000 -0.000000
RightFoot 15.207168 -4.619403 15.218125
RightToeBase -10.562095 -0.000000 0.000000
606
root 1.891489 36.739955 6.269333 -23.191800 -30.294020 -13.259173
Spine 37.243974 0.331672 5.842600
Head 2.468588 12.999994 11.666089
LeftShoulder -5.935652 16.632692 15.284406
LeftArm 19.293043 22.760988 -75.116427
LeftForeArm 19.531117 -0.000000 20.784909
LeftHand -12.726128 -0.000000 -11.213708
LeftHandThumb1 -26.253704 0.000000 33.147579
RightShoulder -26.469944 -48.767475 13.637193
RightArm 59.013460 -20.033304 50.470772
RightForeArm 9.120247 0.000000 20.693980
RightHand -2.411242 0.000000 11.996137
RightHandThumb1 -24.326973 -0.000000 -32.862282
LeftUpLeg 31.075578 11.930324 16.295705
LeftLeg 13.449553 -0.000000 -0.000000
LeftFoot -15.984575 2.021973 -10.000239
LeftToeBase 6.684467 -0.000000 -0.000000
RightUpLeg -70.960325 -4.337191 18.886400
RightLeg 134.685548 -0.000000 -0.000000
RightFoot 15.380686 -4.577456 14.896616
RightToeBase -10.966863 -0.000000 0.000000
607
root 1.894707 36.745265 6.253379 -23.111857 -30.658545 -13.403373
Spine 37.321036 0.298077 5.872832
Head 2.434991 12.947297 11.657800
LeftShoulder -5.934048 16.618299 15.279844
LeftArm 19.330626 22.721228 -75.101629
LeftForeArm 19.555538 -0.000000 21.032932
LeftHand -12.718388 -0.000000 -11.328172
LeftHandThumb1 -26.253704 0.000000 33.147579
RightShoulder -26.413310 -48.733011 13.610246
RightArm 59.000959 -19.931103 50.567175
RightForeArm 9.023594 -0.000000 20.629148
RightHand -2.345036 -0.000000 12.236946
RightHandThumb1 -24.326973 -0.000000 -32.862282
LeftUpLeg 31.178892 12.114847 16.507118
LeftLeg 13.390045 -0.000000 -0.000000
LeftFoot -16.004294 2.162421 -10.031880
LeftToeBase 6.630462 -0.000000 -0.000000
RightUpLeg -70.957185 -4.492818 18.851278
RightLeg 134.665139 -0.000000 -0.000000
RightFoot 15.442909 -4.509309 14.822197
RightToeBase -11.097650 -0.000000 0.000000
